<svg id="Layer_1" data-name="Layer 1" xmlns="http://www.w3.org/2000/svg" xmlns:xlink="http://www.w3.org/1999/xlink" viewBox="0 0 308 52"><defs><style>.cls-1{fill:none;}.cls-2{clip-path:url(#clip-path);}.cls-3{fill:#1a1a1a;}</style><clipPath id="clip-path"><path class="cls-1" d="M23.36,51.5A20.26,20.26,0,0,1,21,49.87C12,42.62,1.7,23,10.88,14.44,12.84,12,30,5.35,47.36,7.91s9.66,22.93,2.31,28C38.64,43.55,21.22,34,21,37.7c-.44.53-.36,1.88.64,3.55,7,.59,22.86,5.66,33.66-2,9.7-7,20-34.79-3.09-38.25S6.33,6.63,3.73,9.9c-9.7,9.33.67,40.18,18.8,41.55h.83Z"/></clipPath></defs><title>Messente_logo_black</title><g class="cls-2"><path id="path3309" class="cls-3" d="M198.76-4.15A120.71,120.71,0,0,1,78.05,116.56H78A120.71,120.71,0,0,1-42.66-4.15,120.71,120.71,0,0,1,78-124.85,120.71,120.71,0,0,1,198.76-4.19Z"/></g><g id="Layer_8" data-name="Layer 8"><g id="text48"><path id="path3280" class="cls-3" d="M104.44,13.87a11.13,11.13,0,0,1,3.8-4.21,9.73,9.73,0,0,1,5.2-1.36,7.39,7.39,0,0,1,6.21,2.83q2.19,2.81,2.19,8V34.69h-4.26V19.28a9.34,9.34,0,0,0-1.31-5.5,4.63,4.63,0,0,0-4-1.79,6.55,6.55,0,0,0-5.2,2.19,8.74,8.74,0,0,0-1.91,6V34.69H100.9V19.28q0-3.73-1.31-5.5a4.68,4.68,0,0,0-4-1.79,6.46,6.46,0,0,0-5.15,2.21,8.71,8.71,0,0,0-1.91,5.94V34.69H84.22V8.92h4.26v4A9.6,9.6,0,0,1,92,9.42,9.73,9.73,0,0,1,96.76,8.3a7.86,7.86,0,0,1,4.76,1.43,8.27,8.27,0,0,1,2.92,4.14"/><path id="path3282" class="cls-3" d="M152.34,20.75v2.07H132.88a9.85,9.85,0,0,0,2.62,6.67,9.1,9.1,0,0,0,6.58,2.28,18.49,18.49,0,0,0,4.72-.6,21,21,0,0,0,4.56-1.79v4a25.39,25.39,0,0,1-4.67,1.47,23.39,23.39,0,0,1-4.85.51q-6.17,0-9.78-3.59t-3.59-9.71q0-6.33,3.4-10a11.92,11.92,0,0,1,9.23-3.73,10.48,10.48,0,0,1,8.21,3.36q3,3.34,3,9.09m-4.23-1.24a8,8,0,0,0-2-5.54,6.46,6.46,0,0,0-5-2.07,8,8,0,0,0-5.68,2,8.47,8.47,0,0,0-2.4,5.6h15.09"/><path id="path3284" class="cls-3" d="M175.71,9.68v4A16.54,16.54,0,0,0,172,12.31a17.23,17.23,0,0,0-4-.46,9.27,9.27,0,0,0-4.74,1,3.18,3.18,0,0,0-1.56,2.9A2.75,2.75,0,0,0,162.81,18a13.52,13.52,0,0,0,4.53,1.59l1.45.32q4.51,1,6.4,2.74a6.31,6.31,0,0,1,1.91,4.9,6.68,6.68,0,0,1-2.85,5.68q-2.83,2.09-7.8,2.09a24,24,0,0,1-4.33-.41,34.9,34.9,0,0,1-4.72-1.2V29.38a23.4,23.4,0,0,0,4.6,1.84,17.7,17.7,0,0,0,4.51.6,8.68,8.68,0,0,0,4.6-1,3.26,3.26,0,0,0,1.61-2.9,3.16,3.16,0,0,0-1.17-2.65q-1.15-.92-5.08-1.77L165,23.14a11.48,11.48,0,0,1-5.68-2.53,6.33,6.33,0,0,1-1.75-4.72,6.66,6.66,0,0,1,2.58-5.61q2.58-2,7.32-2a26.88,26.88,0,0,1,4.42.35,18.8,18.8,0,0,1,3.82,1"/><path id="path3286" class="cls-3" d="M200.28,9.68v4a16.54,16.54,0,0,0-3.73-1.38,17.23,17.23,0,0,0-4-.46,9.27,9.27,0,0,0-4.74,1,3.18,3.18,0,0,0-1.56,2.9A2.75,2.75,0,0,0,187.38,18a13.52,13.52,0,0,0,4.53,1.59l1.45.32q4.51,1,6.4,2.74a6.31,6.31,0,0,1,1.91,4.9,6.68,6.68,0,0,1-2.85,5.68Q196,35.36,191,35.36a24,24,0,0,1-4.33-.41,34.9,34.9,0,0,1-4.72-1.2V29.38a23.4,23.4,0,0,0,4.62,1.84,17.7,17.7,0,0,0,4.51.6,8.68,8.68,0,0,0,4.6-1,3.26,3.26,0,0,0,1.61-2.9,3.16,3.16,0,0,0-1.17-2.65Q195,24.35,191,23.5l-1.47-.35a11.48,11.48,0,0,1-5.68-2.53,6.33,6.33,0,0,1-1.75-4.72,6.66,6.66,0,0,1,2.58-5.61q2.58-2,7.32-2a26.88,26.88,0,0,1,4.42.35,18.8,18.8,0,0,1,3.82,1"/><path id="path3288" class="cls-3" d="M230.47,20.75v2.07H211a9.85,9.85,0,0,0,2.62,6.67,9.1,9.1,0,0,0,6.58,2.28,18.49,18.49,0,0,0,4.72-.6,21,21,0,0,0,4.56-1.79v4a25.39,25.39,0,0,1-4.67,1.47,23.39,23.39,0,0,1-4.85.51q-6.17,0-9.78-3.59t-3.59-9.71q0-6.33,3.4-10a11.92,11.92,0,0,1,9.23-3.73,10.48,10.48,0,0,1,8.21,3.36q3,3.34,3,9.09m-4.23-1.24a8,8,0,0,0-2-5.54,6.46,6.46,0,0,0-5-2.07,8,8,0,0,0-5.68,2,8.47,8.47,0,0,0-2.44,5.64h15.09"/><path id="path3290" class="cls-3" d="M258.83,19.14V34.69H254.6V19.28a8.78,8.78,0,0,0-1.43-5.48,5.11,5.11,0,0,0-4.28-1.8,6.93,6.93,0,0,0-5.41,2.19,8.55,8.55,0,0,0-2,6v14.5h-4.26V8.92h4.26v4a10.38,10.38,0,0,1,3.57-3.47,9.64,9.64,0,0,1,4.76-1.15q4.44,0,6.72,2.76t2.28,8.08"/><path id="path3292" class="cls-3" d="M271.51,1.61V8.92h8.72v3.29h-8.72v14q0,3.15.85,4t3.52.9h4.35v3.54h-4.35q-4.9,0-6.76-1.82t-1.86-6.67v-14h-3.11V8.92h3.11V1.61h4.26"/><path id="path3294" class="cls-3" d="M307.86,20.75v2.07H288.4a9.85,9.85,0,0,0,2.6,6.67,9.1,9.1,0,0,0,6.58,2.28,18.49,18.49,0,0,0,4.72-.6,21,21,0,0,0,4.56-1.79v4a25.39,25.39,0,0,1-4.67,1.47,23.39,23.39,0,0,1-4.85.51q-6.17,0-9.78-3.59T284,22.06q0-6.33,3.4-10a11.92,11.92,0,0,1,9.23-3.73,10.48,10.48,0,0,1,8.21,3.36q3,3.34,3,9.09m-4.23-1.24a8,8,0,0,0-2-5.54,6.46,6.46,0,0,0-5-2.07,8,8,0,0,0-5.68,2,8.47,8.47,0,0,0-2.44,5.64h15.09"/></g></g></svg>