<svg width="350" height="74" viewBox="0 0 350 74" fill="none" xmlns="http://www.w3.org/2000/svg">
<g clip-path="url(#clip0)">
<path d="M80.1001 26.7C80.0001 26.5 80.0001 26.4 80.0001 26.3C76.7001 18.5 64.0001 16.2 49.4001 19.7L47.0001 18.3C54.2001 15.4 61.3001 13.8 67.3001 14.2C76.3001 14.9 80.6001 19.7 80.1001 26.7ZM67.1001 43C57.7001 54.3 40.8001 62.2 29.3001 61.4C17.8001 60.6 16.1001 50.7 25.4001 39.4C25.6001 39.2 25.8001 38.9 26.0001 38.7V52.9C25.9001 56.5 29.6001 58.2 32.2001 56.8L66.6001 36.8C69.3001 35.1 69.0001 31.4 66.5001 30L52.6001 22.4C56.4001 21.3 60.0001 20.8 63.2001 21C74.7001 21.8 76.5001 31.7 67.1001 43ZM23.4001 67.4C12.8001 66.6 8.60008 60 11.4001 51C11.4001 52.5 11.6001 53.9 12.2001 55.3C16.3001 64.9 34.8001 66.3 53.6001 58.2C54.0001 58 54.4001 57.9 54.7001 57.7C44.2001 64.2 32.5001 68.1 23.4001 67.4ZM35.5001 17L58.6001 30.8C60.3001 31.8 60.5001 34.3 58.7001 35.4L35.4001 49C33.6001 50 31.1001 48.8 31.2001 46.3L31.1001 19.4C31.2001 17.2 33.5001 15.9 35.5001 17ZM89.0001 22C84.1001 10.7 64.0001 8.20003 42.3001 15.5L32.6001 9.70003C29.6001 8.10003 26.2001 10.1 26.0001 13.4V22.7C7.30008 33.4 -3.59992 48.8 1.10008 59.6C6.50008 72.1 30.5001 73.8 54.8001 63.4C79.0001 53.1 94.3001 34.5 89.0001 22Z" fill="black"/>
<path d="M108.3 38.3L106.2 45.6C105.9 46.7 105.6 47.7 105.5 48.6C105.3 49.5 105.2 50.2 105.2 50.6C105.2 51.4 105.4 52 105.9 52.4C106.4 52.8 107 53.1 107.8 53.1C109 53.1 110.3 52.4 111.6 51.1C112.9 49.8 114.2 47.9 115.4 45.4C116.9 42.2 118.1 39.1 119 36C119.9 32.9 120.4 30.5 120.4 28.8C120.4 27.5 120.1 26.5 119.6 25.8C119.1 25 118.4 24.6 117.6 24.6C115.8 24.6 114.1 25.7 112.6 27.9C111 30.2 109.6 33.6 108.3 38.3ZM95.1001 21.2C98.4001 21 101.4 20.6 104.4 20.3C107.4 19.9 110.2 19.5 112.9 19L110.6 26.9C112.9 23.9 115.1 21.6 117.2 20.2C119.3 18.8 121.4 18.1 123.7 18.1C126.8 18.1 129.2 19 130.8 20.9C132.5 22.8 133.3 25.4 133.3 28.8C133.3 31.7 132.7 34.7 131.6 37.9C130.4 41.1 128.8 44 126.8 46.8C124.4 50 121.9 52.4 119.2 54C116.5 55.6 113.6 56.4 110.6 56.4C109.4 56.4 108.2 56.2 107.1 55.9C106 55.5 105 55 104.1 54.4L101.7 62.9C101.5 63.4 101.4 64 101.3 64.5C101.2 65 101.2 65.6 101.2 66.1C101.2 67.1 101.5 67.9 102.2 68.3C102.8 68.7 104.1 69 106.1 69.1V71.1H84.1001V69C84.2001 69 84.3001 69 84.4001 69C84.5001 69 84.7001 69 84.7001 69C86.1001 69 87.1001 68.7 87.8001 68C88.5001 67.3 89.2001 65.5 89.9001 62.7L98.7001 28.7C98.9001 28.2 99.0001 27.6 99.1001 27.1C99.2001 26.6 99.2001 26.2 99.2001 25.9C99.2001 25 98.9001 24.3 98.3001 24C97.7001 23.6 96.6001 23.4 95.0001 23.4V21.2H95.1001Z" fill="black"/>
<path d="M135.5 2.5C138.8 2.2 141.9 1.9 145 1.5C148 1.1 150.9 0.6 153.6 0L141.5 45.6C141.4 45.8 141.3 46.1 141.2 46.6C141 47.2 141 47.6 141 47.8C141 48.3 141.1 48.8 141.3 49.1C141.5 49.4 141.9 49.6 142.3 49.6C142.7 49.6 143.2 49.3 143.8 48.7C144.4 48.1 145.4 46.6 147.1 44.2L149 45.6C146.6 49.5 144.2 52.3 142 54C139.8 55.7 137.5 56.6 135.1 56.6C133 56.6 131.3 56 130.2 54.9C129.1 53.8 128.5 52.1 128.5 50C128.5 49 129.1 46.2 130.3 41.8L130.4 41.3L138.4 11.6C138.5 11.3 138.6 10.9 138.7 10.4C139.2 8.5 139.4 7.2 139.4 6.7C139.4 6 139.1 5.4 138.6 5.1C138.1 4.7 137.2 4.6 136.1 4.6H135.4V2.5H135.5Z" fill="black"/>
<path d="M173.4 26.1C173.4 25 173.2 24.2 172.7 23.5C172.2 22.9 171.6 22.5 170.7 22.5C169.5 22.5 168.4 23 167.4 24.1C166.3 25.2 165.1 27 163.7 29.5C162.1 32.5 160.8 35.5 159.8 38.4C158.8 41.3 158.4 43.8 158.4 45.9C158.4 47.1 158.7 48.0999 159.2 48.7999C159.7 49.4999 160.4 49.7999 161.3 49.7999C162.6 49.7999 163.9 49.0999 165.3 47.5999C166.7 46.0999 168 43.9999 169.2 41.2999C170.5 38.2999 171.5 35.3 172.3 32.5C173 29.7 173.4 27.6 173.4 26.1ZM188 19.4L181.5 41.9V42C180.5 45.5 180 47.4999 180 48.0999C180 48.5999 180.1 49.1 180.3 49.4C180.5 49.7 180.8 49.9 181.2 49.9C182.2 49.9 183.6 48.6999 185.2 46.2999C185.7 45.5999 186.1 45.1 186.3 44.7L188.2 46.0999C186.1 49.5999 184 52.2 181.9 53.9C179.8 55.6 177.4 56.4 175 56.4C172.9 56.4 171.4 55.9999 170.3 55.0999C169.2 54.1999 168.7 52.8999 168.7 51.2999C168.7 50.7999 168.7 50.2 168.9 49.4C169 48.6 169.2 47.6 169.4 46.4C167.4 49.8 165.3 52.3 163 53.9C160.7 55.6 158.2 56.4 155.3 56.4C152.4 56.4 150.1 55.4999 148.4 53.7999C146.7 51.9999 145.9 49.7 145.9 46.7C145.9 43.2 146.7 39.6 148.3 35.7C149.9 31.9 152.1 28.5 154.8 25.5C157 23.1 159.2 21.3 161.5 20.1C163.8 18.8 166.1 18.2 168.2 18.2C170.3 18.2 171.9 18.7 173 19.6C174.2 20.6 175 22 175.3 24L176.5 19.5H188V19.4Z" fill="black"/>
<path d="M184.3 22.5V20.4C187.4 20.1 190.6 19.6 193.9 19.2C197.1 18.7 198.9 18.5 199.1 18.5C200.4 18.5 202.1 23.9 204.1 34.8C204.9 39.1 205.6 42.6 206.2 45.2C208.7 40.5 210.3 37 211.2 34.9C212.1 32.8 212.5 31.2 212.5 30.1C212.5 29.3 211.7 28.4 210.2 27.3C208.7 26.2 207.9 24.9 207.9 23.5C207.9 21.9 208.4 20.6 209.5 19.6C210.5 18.6 211.9 18.1 213.7 18.1C215.4 18.1 216.8 18.6 217.7 19.6C218.7 20.6 219.2 22 219.2 23.8C219.2 26 218.1 29.6 215.9 34.5C213.7 39.4 210.6 45 206.8 51.1C202.4 58.2 198.4 63.3 194.9 66.5C191.3 69.7 187.9 71.4 184.6 71.4C182.4 71.4 180.7 70.9 179.4 70C178.1 69.1 177.5 67.8 177.5 66.1C177.5 64.6 178 63.4 179.1 62.4C180.2 61.4 181.6 60.9 183.2 60.9C184.5 60.9 185.9 61.4 187.4 62.4C188.9 63.4 189.9 63.9 190.4 63.9C191.3 63.9 192.3 63.2 193.5 61.7C194.7 60.2 195.3 58.9 195.3 57.6C195.3 56.6 195.2 55.4 195 53.9C194.8 52.4 194.5 50.6 194.2 48.4C193.4 43.8 192.7 39.5 191.9 35.8C191.1 32 190.4 29 189.8 26.8C189.2 24.9 188.7 23.7 188.1 23.1C187.5 22.5 186.6 22.2 185.3 22.2H185.2C184.8 22.5 184.5 22.5 184.3 22.5Z" fill="black"/>
<path d="M234.6 46.0999C232.2 49.3999 229.8 51.8999 227.4 53.5999C225.1 55.2999 223 56.2 221.1 56.2C219.6 56.2 218.4 55.6999 217.5 54.7999C216.6 53.7999 216.2 52.6 216.2 50.9C216.2 50.3 216.3 49.7 216.4 49C216.5 48.3 216.7 47.5 216.9 46.7L223.8 20.9H216.5L217.2 18.7C220.3 18 223.1 16.6 225.5 14.4C227.9 12.2 230.1 9.09995 232 5.19995H234.5L231.2 18.2H237.9L237.2 20.9H230.3L223.6 45.7999C223.4 46.3999 223.3 46.8999 223.3 47.2999C223.2 47.7999 223.2 48.2 223.2 48.5C223.2 49.3 223.4 50 223.8 50.4C224.2 50.8 224.7 51.0999 225.4 51.0999C226.3 51.0999 227.3 50.5999 228.5 49.5999C229.7 48.5999 231.2 47 233.1 44.7L234.6 46.0999Z" fill="black"/>
<path d="M241.5 37.6C246.9 37.4 251.4 36 255 33.4C258.7 30.8 260.5 28 260.5 24.7C260.5 23.6 260.2 22.8 259.6 22.2C259 21.7 258.2 21.4 257 21.4C253.7 21.4 250.7 22.8 248 25.7C245.1 28.6 243 32.6 241.5 37.6ZM240.8 40.4C240.6 41.3 240.4 42.2 240.3 43.1C240.2 43.9 240.1 44.7 240.1 45.4C240.1 47.6 240.7 49.2 241.8 50.3C242.9 51.4 244.6 52.3 246.7 52.3C248.8 52.3 251.2 51.3 253.9 50C256.6 48.6 259.6 46.6 263 43.8L264.8 46.3C260.8 49.7 257 52.3 253.5 53.9C250 55.5 246.5 56.4 243.1 56.4C239.8 56.4 237.2 55.4 235.3 53.6C233.5 51.7 232.5 49 232.5 45.5C232.5 42.2 233.2 38.8 234.6 35.4C236 32 238 28.9 240.5 26.3C242.9 23.8 245.5 21.8 248.4 20.5C251.3 19.2 254.2 18.5 257.3 18.5C260.1 18.5 262.3 19.1 263.9 20.4C265.5 21.6 266.3 23.3 266.3 25.5C266.3 29.4 263.9 32.7 259.2 35.5C254.6 38.1 248.4 39.8 240.8 40.4Z" fill="black"/>
<path d="M293.3 40.9L293.2 45.8C290.7 49.3 287.9 52 284.9 53.7C281.9 55.4 278.7 56.3 275.1 56.3C271.2 56.3 268.1 55.1 265.6 52.6C263.2 50.2 262 46.9 262 42.8C262 39.8 262.7 36.8 264.1 33.7C265.5 30.6 267.4 27.8 269.8 25.4C272 23.2 274.5 21.4 277.3 20.3C280 19.1 282.8 18.5 285.7 18.5C288.7 18.5 291.1 19.2 292.9 20.5C294.7 21.8 295.6 23.6 295.6 25.8C295.6 27.1 295.1 28.2 294.2 29.2C293.3 30.1 292.2 30.6 290.9 30.6C289.9 30.6 289 30.3 288.4 29.6C287.8 29 287.4 28.1 287.4 27.1C287.4 26.4 287.7 25.5 288.2 24.5C288.7 23.5 289 22.9 289 22.7C289 22.3 288.7 21.9 288.2 21.6C287.7 21.3 287 21.2 286 21.2C284.1 21.2 282.3 21.7 280.3 22.9C278.4 24 276.7 25.6 275.2 27.5C273.4 29.8 272.1 32.3 271.1 35C270.2 37.6 269.7 40.2 269.7 42.7C269.7 45.6 270.5 47.9 272 49.5C273.5 51.2 275.6 52.3 278.2 52.3C280.3 52.3 282.3 51.4 284.3 50.2C286.4 48.7 289.7 46.2 293.3 40.9Z" fill="black"/>
<path d="M288.8 56.2999L302.5 9.19995C302.6 8.89995 302.6 8.59995 302.7 8.29995C302.8 7.99995 302.8 7.69995 302.8 7.49995C302.8 6.69995 302.6 6.09995 302.2 5.79995C301.8 5.49995 300.5 5.29995 298.5 5.29995H295.4L295.9 3.19995C298.4 3.09995 300.8 2.79995 302.9 2.39995C305.1 1.99995 307.1 1.39995 309.1 0.699951H311.6L302.1 33.2C306.9 28.5 311.4 24.9 315.5 22.2C319.6 19.6 322.8 18.2999 325.2 18.2999C326.5 18.2999 327.4 18.6 328 19.2C328.6 19.8 328.9 20.6999 328.9 21.9C328.9 22.3 328.8 22.6999 328.7 23.2999C328.6 23.8999 328.4 24.5 328.3 25.1L321.4 47.2999C321.3 47.6999 321.2 48.2 321.1 48.7C321 49.2 321 49.7 321 50.2C321 50.5 321.1 50.7 321.4 51C321.6 51.2 321.9 51.5999 322.3 51.5999C323 51.5999 323.9 50.9 325.1 50C326.3 49.1 327.5 47.9 328.9 46.4L330.3 47.5999C327.9 50.3999 325.6 52.6 323.4 54C321.2 55.5 319.2 56.2 317.3 56.2C316.1 56.2 315.1 55.9 314.4 55.4C313.7 54.8 313.4 54.0999 313.4 53.0999C313.4 52.6999 313.4 52.4 313.5 52C313.6 51.6 313.7 51.2 313.9 50.7L321 27.7999C321.1 27.2999 321.2 26.9 321.3 26.7C321.3 26.4 321.4 26.2 321.4 26C321.4 25.4 321.2 25 320.9 24.7C320.6 24.4 320.1 24.2999 319.4 24.2999C318.4 24.2999 316.9 24.9 314.9 26.1C312.9 27.3 310.7 28.9999 308.1 31.2999C305.8 33.2999 304.1 35 303 36.4C301.9 37.8 301.1 39.2999 300.6 40.7999L295.9 56.5999C295.4 56.4999 293.5 56.5 292.9 56.4C292.4 56.4 293.2 56.4 292.6 56.4C292 56.4 291.4 56.4 290.9 56.4C289.9 56.2 289.3 56.2999 288.8 56.2999Z" fill="black"/>
<path d="M207.6 69.3V69.9C207.6 70.2 207.6 70.5 207.7 70.8C207.9 71.5 208.5 71.9 209.6 71.9C210 71.9 210.4 71.9 210.7 71.7C211.4 71.5 211.8 71 211.8 70.1C211.8 69.5 211.6 69.1 211.1 68.8C210.8 68.6 210.3 68.4 209.9 68.2L208.5 67.6C207.9 67.4 207.5 67.1 207.1 66.9C206.3 66.4 205.9 65.6 205.9 64.7C205.9 63.6 206.4 62.9 207.2 62.4C207.9 62.1 208.7 61.9 209.9 61.9C211.3 61.9 212.3 62.2 212.9 62.6C213.4 63 213.6 63.8 213.6 65V65.2H211.6V64.9V64.3C211.5 63.4 210.9 63 209.9 63C208.6 63 207.9 63.5 207.9 64.5C207.9 65.1 208.3 65.7 209.1 66.1C209.6 66.4 210.2 66.6 210.8 66.9C211.4 67.2 212 67.4 212.4 67.6C213.4 68.2 213.8 69 213.8 70.1C213.8 72.1 212.4 73.1 209.6 73.1C208.4 73.1 207.5 72.9 206.9 72.5C206.1 72 205.7 71.4 205.7 70.5V69.6V69.2H207.6V69.3Z" fill="black"/>
<path d="M215.1 65.5C215.1 64.6 215.2 63.9 215.4 63.5C215.7 62.8 216.2 62.4 217.1 62.1C217.7 61.9 218.4 61.8 219.2 61.8C219.9 61.8 220.6 61.9 221.3 62.1C222.2 62.4 222.8 62.9 223 63.5C223.2 63.9 223.3 64.6 223.3 65.5V69.2C223.3 69.9 223.3 70.4001 223.2 70.9001C223 72.4001 221.7 73.1 219.3 73.1C217.6 73.1 216.4 72.8 215.8 72.1C215.4 71.6 215.1 70.6 215.1 69.2V65.5ZM217.1 69.2C217.1 70.1 217.2 70.7 217.3 71C217.4 71.3 217.7 71.5 218.1 71.7C218.5 71.9 218.9 71.9001 219.2 71.9001C219.6 71.9001 219.9 71.8 220.2 71.7C220.8 71.5 221.2 71.0001 221.2 70.4001C221.2 70.1001 221.3 69.6 221.3 69.2V65.5C221.3 64.7 221.2 64.1 221 63.8C220.7 63.3 220.1 63 219.2 63C218.8 63 218.5 63.1001 218.2 63.2001C217.6 63.4001 217.2 63.8 217.1 64.5C217.1 64.8 217 65.1 217.1 65.5V69.2V69.2Z" fill="black"/>
<path d="M225 62H227V69.3V70.3C227.1 71.4 227.7 71.9 229 71.9C230.2 71.9 230.9 71.4 231 70.4C231 70 231.1 69.7 231.1 69.3V62H233.1V69.5C233.1 70.1 233.1 70.6 233 70.9C232.9 71.4 232.7 71.8 232.4 72.2C231.7 72.9 230.6 73.2 229.1 73.2C227.6 73.2 226.5 72.9 225.8 72.2C225.4 71.8 225.2 71.4 225.2 70.9C225.2 70.6 225.2 70.1 225.2 69.5V62H225Z" fill="black"/>
<path d="M238.2 62H239.4C239.9 62 240.3 62 240.6 62.1C242 62.3 242.8 63.2 242.8 64.7C242.8 65.5 242.6 66.1 242.2 66.5C241.8 66.9 241.1 67.2 240 67.3C240.7 67.4 241.1 67.5 241.4 67.6C241.8 67.8 242.1 68.1 242.2 68.6C242.3 68.9 242.3 69.2 242.3 69.6L242.4 70.9C242.4 71.4 242.5 71.8 242.6 72.1C242.6 72.3 242.7 72.6 242.9 73H240.9L240.7 72.3C240.6 72.1 240.6 71.8 240.6 71.5L240.5 70.5L240.4 69.5C240.3 68.7 239.9 68.2 239.2 68.1C238.9 68 238.5 68 238.2 68H236.8V73H234.8V62H238.2ZM236.9 63.2V66.7H238.3C238.7 66.7 239.1 66.7 239.4 66.6C240 66.5 240.4 66.3 240.6 65.9C240.8 65.7 240.8 65.3 240.8 64.7C240.8 64.1 240.6 63.7 240.1 63.4C239.8 63.2 239.2 63.1 238.3 63.1H236.9V63.2Z" fill="black"/>
<path d="M250.2 64.9V64.4C250.1 63.5 249.6 63.1 248.5 63.1C247.6 63.1 247 63.3 246.7 63.8C246.5 64 246.5 64.2 246.4 64.5V65.4V69.7C246.4 70.5 246.5 71 246.6 71.2C246.9 71.7 247.5 71.9 248.3 71.9C249.3 71.9 249.9 71.4 250.1 70.5L250.2 69.8V69.4H252.2V69.8V70.5C252.1 71.3 251.8 71.9 251.3 72.4C251 72.7 250.6 72.9 250.2 73C249.7 73.1 249.1 73.2 248.5 73.2C248 73.2 247.5 73.2 247 73.1C245.4 72.8 244.6 71.8 244.6 70V65.6C244.6 65.1 244.6 64.7 244.7 64.3C244.8 63.8 244.9 63.4 245.2 63.1C245.8 62.4 246.9 62 248.6 62C250.9 62 252.1 62.7 252.3 64C252.3 64.3 252.3 64.5 252.3 64.9V65.3H250.3V64.9H250.2Z" fill="black"/>
<path d="M253.9 62H260.3V63.2H255.8V66.7H260V67.9H255.8V71.7H260.4V73H253.9V62V62Z" fill="black"/>
<path d="M265.5 65.5C265.5 64.6 265.6 63.9 265.8 63.5C266.1 62.8 266.6 62.4 267.5 62.1C268.1 61.9 268.8 61.8 269.6 61.8C270.3 61.8 271 61.9 271.7 62.1C272.6 62.4 273.2 62.9 273.4 63.5C273.6 63.9 273.7 64.6 273.7 65.5V69.2C273.7 69.9 273.7 70.4001 273.6 70.9001C273.4 72.4001 272.1 73.1 269.7 73.1C268 73.1 266.8 72.8 266.2 72.1C265.8 71.6 265.5 70.6 265.5 69.2V65.5V65.5ZM267.5 69.2C267.5 70.1 267.6 70.7 267.7 71C267.8 71.3 268.1 71.5 268.5 71.7C268.9 71.9 269.3 71.9001 269.6 71.9001C270 71.9001 270.3 71.8 270.6 71.7C271.2 71.5 271.6 71.0001 271.6 70.4001C271.6 70.1001 271.7 69.6 271.7 69.2V65.5C271.7 64.7 271.6 64.1 271.4 63.8C271.1 63.3 270.5 63 269.6 63C269.2 63 268.9 63.1001 268.6 63.2001C268 63.4001 267.6 63.8 267.5 64.5C267.5 64.8 267.4 65.1 267.4 65.5V69.2H267.5Z" fill="black"/>
<path d="M281.7 62V63.2H277.4V66.7H281.5V67.9H277.4V72.9H275.4V62H281.7Z" fill="black"/>
<path d="M288.2 69.3V69.9C288.2 70.2 288.2 70.5 288.3 70.8C288.5 71.5 289.1 71.9 290.2 71.9C290.6 71.9 291 71.9 291.3 71.7C292 71.5 292.4 71 292.4 70.1C292.4 69.5 292.2 69.1 291.7 68.8C291.4 68.6 290.9 68.4 290.5 68.2L289.1 67.6C288.5 67.4 288.1 67.1 287.7 66.9C286.9 66.4 286.5 65.6 286.5 64.7C286.5 63.6 287 62.9 287.8 62.4C288.4 62.1 289.3 61.9 290.5 61.9C291.9 61.9 292.9 62.2 293.5 62.6C294 63 294.2 63.8 294.2 65V65.2H292.2V64.9V64.3C292.1 63.4 291.5 63 290.5 63C289.2 63 288.5 63.5 288.5 64.5C288.5 65.1 288.9 65.7 289.7 66.1C290.2 66.4 290.8 66.6 291.4 66.9C292 67.2 292.6 67.4 293 67.6C293.9 68.2 294.4 69 294.4 70.1C294.4 72.1 293 73.1 290.2 73.1C289 73.1 288.1 72.9 287.4 72.5C286.6 72 286.2 71.4 286.2 70.5V69.6V69.2H288.2V69.3Z" fill="black"/>
<path d="M295.9 62H297.9V69.3V70.3C298 71.4 298.6 71.9 299.9 71.9C301.1 71.9 301.8 71.4 301.9 70.4C301.9 70 302 69.7 302 69.3V62H304V69.5C304 70.1 304 70.6 303.9 70.9C303.8 71.4 303.6 71.8 303.3 72.2C302.6 72.9 301.5 73.2 300 73.2C298.5 73.2 297.4 72.9 296.7 72.2C296.3 71.8 296.1 71.4 296.1 70.9C296.1 70.6 296.1 70.1 296.1 69.5V62H295.9Z" fill="black"/>
<path d="M311.5 64.9V64.4C311.5 63.5 310.9 63.1 309.8 63.1C308.9 63.1 308.3 63.3 308 63.8C307.8 64 307.8 64.2 307.7 64.5V65.4V69.7C307.7 70.5 307.8 71 307.9 71.2C308.2 71.7 308.8 71.9 309.6 71.9C310.6 71.9 311.2 71.4 311.4 70.5L311.5 69.8V69.4H313.5V69.8V70.5C313.4 71.3 313.1 71.9 312.6 72.4C312.3 72.7 311.9 72.9 311.5 73C311 73.1 310.4 73.2 309.8 73.2C309.3 73.2 308.8 73.2 308.3 73.1C306.7 72.8 305.9 71.8 305.9 70V65.6C305.9 65.1 305.9 64.7 306 64.3C306.1 63.8 306.2 63.4 306.5 63.1C307.1 62.4 308.2 62 309.9 62C312.2 62 313.4 62.7 313.6 64C313.6 64.3 313.7 64.5 313.7 64.9V65.3H311.7V64.9H311.5Z" fill="black"/>
<path d="M321 64.9V64.4C321 63.5 320.4 63.1 319.3 63.1C318.4 63.1 317.8 63.3 317.5 63.8C317.3 64 317.3 64.2 317.3 64.5V65.4V69.7C317.3 70.5 317.4 71 317.5 71.2C317.8 71.7 318.4 71.9 319.2 71.9C320.2 71.9 320.8 71.4 321 70.5L321.1 69.8V69.4H323.1V69.8V70.5C323 71.3 322.7 71.9 322.2 72.4C321.9 72.7 321.5 72.9 321.1 73C320.6 73.1 320 73.2 319.4 73.2C318.9 73.2 318.4 73.2 317.9 73.1C316.3 72.8 315.5 71.8 315.5 70V65.6C315.5 65.1 315.5 64.7 315.6 64.3C315.7 63.8 315.8 63.4 316.1 63.1C316.7 62.4 317.9 62 319.5 62C321.8 62 323 62.7 323.2 64C323.2 64.3 323.2 64.5 323.2 64.9V65.3H321.2V64.9H321Z" fill="black"/>
<path d="M324.7 62H331.1V63.2H326.6V66.7H330.8V67.9H326.6V71.7H331.2V73H324.7V62Z" fill="black"/>
<path d="M334.1 69.3V69.9C334.1 70.2 334.1 70.5 334.2 70.8C334.4 71.5 335 71.9 336.1 71.9C336.5 71.9 336.9 71.9 337.2 71.7C337.9 71.5 338.3 71 338.3 70.1C338.3 69.5 338 69.1 337.6 68.8C337.3 68.6 336.8 68.4 336.4 68.2L335 67.6C334.4 67.4 334 67.1 333.6 66.9C332.8 66.4 332.4 65.6 332.4 64.7C332.4 63.6 332.9 62.9 333.7 62.4C334.3 62.1 335.2 61.9 336.4 61.9C337.8 61.9 338.8 62.2 339.4 62.6C339.9 63 340.1 63.8 340.1 65V65.2H338.1V64.9V64.3C338 63.4 337.4 63 336.4 63C335.1 63 334.4 63.5 334.4 64.5C334.4 65.1 334.8 65.7 335.6 66.1C336.1 66.4 336.7 66.6 337.3 66.9C337.9 67.2 338.5 67.4 338.9 67.6C339.8 68.2 340.3 69 340.3 70.1C340.3 72.1 338.9 73.1 336.1 73.1C334.9 73.1 334 72.9 333.3 72.5C332.5 72 332.1 71.4 332.1 70.5V69.6V69.2H334.1V69.3Z" fill="black"/>
<path d="M343.2 69.3V69.9C343.2 70.2 343.2 70.5 343.3 70.8C343.5 71.5 344.1 71.9 345.2 71.9C345.6 71.9 346 71.9 346.3 71.7C347 71.5 347.4 71 347.4 70.1C347.4 69.5 347.1 69.1 346.7 68.8C346.4 68.6 345.9 68.4 345.5 68.2L344.1 67.6C343.5 67.4 343.1 67.1 342.7 66.9C341.9 66.4 341.5 65.6 341.5 64.7C341.5 63.6 342 62.9 342.8 62.4C343.4 62.1 344.3 61.9 345.5 61.9C346.9 61.9 347.9 62.2 348.5 62.6C349 63 349.2 63.8 349.2 65V65.2H347.2V64.9V64.3C347.1 63.4 346.5 63 345.4 63C344.1 63 343.4 63.5 343.4 64.5C343.4 65.1 343.8 65.7 344.6 66.1C345.1 66.4 345.7 66.6 346.3 66.9C346.9 67.2 347.5 67.4 347.9 67.6C348.8 68.2 349.3 69 349.3 70.1C349.3 72.1 347.9 73.1 345.1 73.1C343.9 73.1 343 72.9 342.3 72.5C341.5 72 341.1 71.4 341.1 70.5V69.6V69.2H343.2V69.3Z" fill="black"/>
</g>
<defs>
<clipPath id="clip0">
<rect width="349.5" height="73.1" fill="white"/>
</clipPath>
</defs>
</svg>
