<svg width="426" height="79" viewBox="0 0 426 79" fill="none" xmlns="http://www.w3.org/2000/svg">
<path d="M410.18 5.16003V26.17C410.18 37.11 410.51 46.86 411.51 56.4H411.29C407.84 48.26 403.51 39.25 399.05 31.64L383.47 5.16003H363.68V77.42H379.25V55.65C379.25 43.87 379.03 33.68 378.47 24.03H378.91C382.47 32.5 387.47 41.83 391.92 49.54L407.94 77.42H425.74V5.16003H410.18Z" fill="black"/>
<path d="M311.13 18.23C310.36 18.54 309.59 18.87 308.82 19.25C298.73 24.2 293.26 32.72 292.63 42.29C293.37 46.96 294.96 51.73 297.43 56.4C303.14 67.23 312.01 74.84 322.35 77.64C325.2 78.41 328.16 78.82 331.19 78.83H331.38C336.88 78.81 342.62 77.49 348.4 74.66C364.08 66.97 371.72 53.45 369.23 37.6C368.64 47.34 362.77 55.51 352.54 60.52C351.98 60.8 351.41 61.05 350.85 61.3C335.24 67.95 320.2 60.8 312.49 46.17C312.07 45.38 311.69 44.59 311.33 43.8C311.14 43.38 309.86 40.16 309.18 37.4C307.37 30.02 309.25 23.25 315.45 18.89C318.19 16.98 321.11 16.03 324.1 15.89C323.62 15.87 323.13 15.85 322.64 15.85C318.94 15.87 315.08 16.63 311.13 18.23Z" fill="black"/>
<path d="M312.81 4.51002C297.06 12.24 290.16 26.82 292.63 42.31C293.26 32.74 298.74 24.21 308.82 19.27C309.59 18.89 310.36 18.55 311.13 18.25C315.59 16.42 319.96 15.7 324.09 15.92C329.2 15.68 334.48 17.81 339.21 21.56C342.21 23.82 344.85 26.67 347.05 29.99C351 35.6 353.2 41.36 353.34 46.54C353.48 51.98 351.3 56.74 346.56 60.14C334.59 68.73 320.39 56.43 320.28 56.34C328.44 63.68 339.49 66.16 350.85 61.32C351.41 61.07 351.98 60.82 352.54 60.54C362.76 55.53 368.63 47.36 369.23 37.62C368.46 32.74 366.75 27.64 363.99 22.42C358.93 12.83 351.22 5.60002 342.01 2.26002C338.34 0.930015 334.43 0.210016 330.35 0.210016C324.76 0.200016 318.85 1.55002 312.81 4.51002Z" fill="black"/>
<path d="M303.33 56.94C301.44 50.29 298.55 45.58 293.33 43.54V43.21C299.78 40.96 306.56 34.64 306.56 25.52C306.56 18.87 304.11 13.73 299.55 10.29C294.21 6.21997 286.42 4.60997 275.31 4.60997C270.19 4.60997 265.43 4.80997 261.27 5.14997H254.88H211.14H204.89H193.12L183.55 36.02C180.99 44.28 178.66 52.86 176.77 61.54H176.43C174.65 52.53 172.32 44.39 169.76 35.7L160.64 5.14997H160.57H148.88H140.16H100.99H100.82V63.68H75.26V5.15997H58.3501V62.83C54.8801 64.11 47.22 64.98 42.26 64.98C27.25 64.98 18.34 55.87 18.34 41.4C18.34 25.31 28.8 17.49 42.14 17.49C44.83 17.49 47.24 17.74 49.41 18.14V4.55997C47.03 4.26997 44.37 4.08997 41.48 4.08997C18.79 4.08997 0.550049 17.71 0.550049 42.36C0.550049 62.94 13.9 78.59 39.81 78.59C44.67 78.59 51.4 78.09 54.81 77.41H58.34H92.76H100.81H105.05H148.52V64.02H117.71V46.86H141.07V33.57H117.71V18.56H146.52L166.09 77.42H185.88L204.87 23.05V68.85V77.42H252.7H256.41H269.49V68.85V49.01H274.5C281.51 49.12 284.73 51.47 286.85 60.58C288.96 69.48 290.85 75.27 291.97 77.42H309.32C307.89 74.63 305.66 65.2 303.33 56.94ZM221.8 46.86H244.29V33.57H221.8V18.56H252.72V23.07V33.57V46.86V59.61V64.02H221.8V46.86ZM276.19 37.22H269.51V17.38C270.74 17.06 273.07 16.84 277.19 16.84C284.98 16.84 289.65 20.27 289.65 26.81C289.65 33.14 284.64 37.22 276.19 37.22Z" fill="black"/>
</svg>
