<svg width="330" height="58" viewBox="0 0 330 58" fill="none" xmlns="http://www.w3.org/2000/svg">
<g clip-path="url(#clip0)">
<path d="M329.1 34.6V48.1C322 50.9 313.9 52.4 305.4 52.4C296.8 52.4 288.7 50.8 281.7 48V34.5C288.2 37.9 296.4 39.9 305.4 39.9C314.3 40 322.6 38 329.1 34.6ZM305.4 27.5C294.3 27.5 285 24.2 281.7 19.7V29C287.6 32.7 296 35 305.4 35C314.8 35 323.2 32.7 329.1 29.1V19.8C325.8 24.3 316.4 27.5 305.4 27.5ZM305.4 0C295.7 0 287.1 2.4 281.7 6.3V12.7C285 8.2 294.4 5 305.4 5C310.3 5 314.8 5.6 318.6 6.7C314.2 9.3 306.7 13.7 305.3 14.6C304.6 14.2 302 12.9 299.1 11.4L294 14.4L305.4 20.4L324.5 9.1C326.5 10.2 328.1 11.4 329.1 12.8V6.4C323.7 2.5 315.1 0 305.4 0Z" fill="black"/>
<path d="M60.9 45.5H53.9V41.6H53.8C51.5 44.4 48.3 46.1 44.4 46.1C37.6 46.1 34.7 41.3001 34.7 34.9001V16.9H42.1V32.1C42.1 35.6 42.1 40.3 46.9 40.3C52.3 40.3 53.5 34.5 53.5 30.8V16.8H60.9V45.5Z" fill="#231F20"/>
<path d="M71.8 18.4999C74.7 17.1999 78.6 16.3999 81.7 16.3999C90.4 16.3999 91.2 19.9999 91.2 28.3999V32.0999C91.2 34.9999 91.3 37.0999 91.3 39.2999C91.4 41.4999 91.6 43.4999 91.8 45.6999H85.1C84.8 44.1999 84.8 42.2999 84.8 41.3999H84.7C83 44.5999 79.3 46.2999 75.9 46.2999C70.9 46.2999 65.9 43.1999 65.9 37.7999C65.9 33.4999 68 30.9999 70.8 29.6999C73.6 28.2999 77.3 28.0999 80.4 28.0999H84.5C84.5 23.4999 85.2 21.8999 80.9 21.8999C77.7 21.8999 74.6 23.0999 72.1 24.9999L71.8 18.4999ZM77.7 40.7999C80 40.7999 81.7 39.7999 82.9 38.2999C84.1 36.6999 84.5 34.5999 84.5 32.3999H81.3C78 32.3999 73 32.8999 73 37.2999C72.9 39.6999 75 40.7999 77.7 40.7999Z" fill="#231F20"/>
<path d="M97.7 16.9999H104.3V23.4999H104.4C104.7 20.7999 107.8 16.3999 112.2 16.3999C112.9 16.3999 113.7 16.3999 114.5 16.5999V24.0999C113.8 23.6999 112.5 23.4999 111.2 23.4999C105.2 23.4999 105.1 30.9999 105.1 35.0999V45.5999H97.7V16.9999Z" fill="#231F20"/>
<path d="M138.1 42.5H138C135.8 45.3 132.7 46.4 129.2 46.4C120.4 46.4 117.2 39.2 117.3 31.4C117.3 23.5 120.5 16.6 129.3 16.6C133 16.6 135.6 17.9 137.8 20.6H137.9V7L145.3 1.5L145.2 45.8H138L138.1 42.5ZM131.2 40.6C136.1 40.6 137.8 35.4 137.8 31.4C137.8 27.4 135.9 22.3 131.2 22.3C126.4 22.3 125 27.6 125 31.4C125 35.2 126.4 40.5 131.2 40.6Z" fill="#231F20"/>
<path d="M156 22.6H150.5L151.1 17.2H156V13.7L163.4 6.30005V17.2H170L169.4 22.6H163.4V35.9001C163.4 38.3001 164.1 40.6 166.9 40.6C168.2 40.6 169.6 40.3 170.4 39.8L170.5 45.7001C168.9 46.1001 167.2 46.4001 165 46.4001C159.2 46.4001 156 42.8 156 37.1V22.6Z" fill="#231F20"/>
<path d="M175.3 17.1999H182.7L182.6 45.6999H175.2L175.3 17.1999ZM179 4.8999C180.9 4.8999 182.5 6.4999 182.5 8.4999C182.5 10.3999 180.9 11.9999 178.9 11.9999C177 11.9999 175.4 10.3999 175.4 8.3999C175.5 6.4999 177.1 4.8999 179 4.8999Z" fill="#231F20"/>
<path d="M190.4 17.2001H197.3V21.2001H197.4C199.7 17.7001 203.1 16.6001 205.9 16.6001C209.9 16.6001 212.7 18.1001 214.3 21.7001C216 18.3001 219.7 16.7001 223.2 16.7001C230.2 16.7001 232.2 21.5001 232.2 27.9001V45.9001H224.8V28.9001C224.8 26.2001 224.8 22.5001 220.5 22.5001C215.6 22.5001 214.9 28.4001 214.9 32.1001V46.0001H207.5V29.0001C207.5 26.3001 207.5 22.6001 203.2 22.6001C198.3 22.6001 197.6 28.5001 197.6 32.2001V46.1001H190.2L190.4 17.2001Z" fill="#231F20"/>
<path d="M262.7 44.2999C260 45.7999 256.9 46.5999 252.9 46.5999C243.5 46.5999 238 41.0999 238 31.7999C238 23.4999 242.4 16.7 251.3 16.7C261.9 16.7 264.9 24 264.8 34H245.1C245.4 38.6 248.6 41.2 253.2 41.2C256.8 41.2 259.4 39.8999 262.1 38.2999L262.7 44.2999ZM257.7 28.7999C257.5 25.1999 255.8 22.1 251.7 22.1C247.5 22.1 245.4 24.9999 245.1 28.7999H257.7Z" fill="#231F20"/>
<path d="M20.9 20.7999C18.9 17.4999 15.9 16.2 12.1 16.2C3.6 16.2 0 24.1 0 31C0 38.6 3.2 45.4 11.6 45.4C15.8 45.4 19.1 43.3 20.5 40.9H20.6C20.6 45.8 20.2 51.9 12.1 52C12.1 52 10.7 51.9 9.8 51.5C8.5 50.9 8 50.0999 8 50.0999L2.6 53.0999C2.6 53.0999 4.1 55 6.1 56C9.3 57.7 12.2 57.7 12.2 57.7C24.1 57.7 28.1 50.4 28.2 42.7L28.3 16.9L20.9 20.7999ZM14.1 39.7C9.8 39.7 7.8 34.9 7.8 31C7.8 26.6 9.4 22 14.5 22C18.8 22 20.7 25.9999 20.7 30.9C20.6 35.5999 18.7 39.7 14.1 39.7Z" fill="#231F20"/>
</g>
<defs>
<clipPath id="clip0">
<rect width="329.1" height="57.7" fill="white"/>
</clipPath>
</defs>
</svg>
